<?xml version="1.0"?>
<svg xmlns="http://www.w3.org/2000/svg" viewBox="0 0 19 20" fill="none">
  <g>
    <path fill="currentColor" d="M14.5382 13.1495C15.5866 11.6421 16.0327 9.7968 15.7887 7.97691C15.5447 6.15702 14.6282 4.4944 13.2197 3.31636C11.8113 2.13833 10.0128 1.53023 8.17847 1.61178C6.34411 1.69333 4.60673 2.45862 3.30835 3.75699C2.00998 5.05536 1.24469 6.79275 1.16314 8.62711C1.08159 10.4615 1.68969 12.2599 2.86772 13.6684C4.04576 15.0768 5.70838 15.9933 7.52827 16.2373C9.34816 16.4813 11.1935 16.0352 12.7009 14.9868L15.987 18.2781L16.1759 18.0891L17.6562 16.6088L17.8452 16.4198L14.5382 13.1495ZM8.5015 13.6745C7.56711 13.6745 6.65371 13.3974 5.87679 12.8783C5.09988 12.3592 4.49435 11.6213 4.13678 10.7581C3.7792 9.8948 3.68564 8.9449 3.86793 8.02846C4.05022 7.11203 4.50017 6.27023 5.16088 5.60952C5.82159 4.94881 6.66339 4.49886 7.57982 4.31657C8.49626 4.13428 9.44616 4.22784 10.3094 4.58541C11.1727 4.94299 11.9105 5.54852 12.4296 6.32543C12.9488 7.10235 13.2258 8.01575 13.2258 8.95014C13.2258 10.2031 12.7281 11.4048 11.8421 12.2907C10.9561 13.1767 9.75447 13.6745 8.5015 13.6745Z"/>
  </g>
</svg>
