<?xml version="1.0"?>
<svg xmlns="http://www.w3.org/2000/svg" viewBox="0 0 15 16" fill="none">
  <path fill="currentColor" d="M14.0132 4.85417L12.5465 10.1708C12.4763 10.4387 12.3192 10.6758 12.0997 10.8447C11.8803 11.0136 11.6109 11.1049 11.334 11.1042H6.14648C5.87656 11.1044 5.61379 11.0173 5.39749 10.8558C5.18119 10.6944 5.02296 10.4672 4.94648 10.2083L3.15065 4.85417H0.833984V3.1875H3.45065C3.71251 3.18799 3.9676 3.2707 4.17992 3.42396C4.39224 3.57722 4.55106 3.79329 4.63398 4.04167L4.90898 4.875L14.0132 4.85417ZM6.25065 12.7708C6.04463 12.7708 5.84323 12.8319 5.67193 12.9464C5.50063 13.0608 5.36712 13.2235 5.28828 13.4139C5.20944 13.6042 5.18881 13.8137 5.229 14.0157C5.26919 14.2178 5.3684 14.4034 5.51408 14.5491C5.65976 14.6947 5.84537 14.794 6.04743 14.8342C6.2495 14.8743 6.45894 14.8537 6.64928 14.7749C6.83962 14.696 7.00231 14.5625 7.11677 14.3912C7.23123 14.2199 7.29232 14.0185 7.29232 13.8125C7.29232 13.5362 7.18257 13.2713 6.98722 13.0759C6.79187 12.8806 6.52692 12.7708 6.25065 12.7708ZM11.2507 12.7708C11.0446 12.7708 10.8432 12.8319 10.6719 12.9464C10.5006 13.0608 10.3671 13.2235 10.2883 13.4139C10.2094 13.6042 10.1888 13.8137 10.229 14.0157C10.2692 14.2178 10.3684 14.4034 10.5141 14.5491C10.6598 14.6947 10.8454 14.794 11.0474 14.8342C11.2495 14.8743 11.4589 14.8537 11.6493 14.7749C11.8396 14.696 12.0023 14.5625 12.1168 14.3912C12.2312 14.2199 12.2923 14.0185 12.2923 13.8125C12.2923 13.5362 12.1826 13.2713 11.9872 13.0759C11.7919 12.8806 11.5269 12.7708 11.2507 12.7708Z"/>
</svg>
