<?xml version="1.0"?>
<svg xmlns="http://www.w3.org/2000/svg" viewBox="0 0 17 18" fill="none">
  <path fill="currentColor" d="M7.35571 4.84717L8.571 8.61455C8.72291 9.13104 9.14826 9.52601 9.66475 9.7083L13.4321 10.9236L9.66475 12.1389C9.14826 12.2908 8.75329 12.7161 8.571 13.2326L7.35571 17L6.14043 13.2326C5.98852 12.7161 5.56317 12.3212 5.04667 12.1389L1.2793 10.9236L5.04667 9.7083C5.56317 9.55639 5.95814 9.13104 6.14043 8.61455L7.35571 4.84717Z"/>
  <path fill="currentColor" d="M11.2353 2.90283L11.7737 4.58905C11.8455 4.82476 12.025 5.00607 12.2584 5.0786L13.9276 5.62254L12.2584 6.16648C12.025 6.239 11.8455 6.42032 11.7737 6.65602L11.2353 8.34224L10.6968 6.65602C10.625 6.42032 10.4455 6.239 10.2122 6.16648L8.54297 5.62254L10.2122 5.0786C10.4455 5.00607 10.625 4.82476 10.6968 4.58905L11.2353 2.90283Z"/>
  <path fill="currentColor" d="M4.44381 3.29138L4.71304 4.14356C4.74894 4.25234 4.83868 4.343 4.94637 4.37926L5.78996 4.65123L4.94637 4.9232C4.83868 4.95947 4.74894 5.05012 4.71304 5.15891L4.44381 6.01109L4.17458 5.15891C4.13868 5.05012 4.04894 4.95947 3.94125 4.9232L3.09766 4.65123L3.94125 4.37926C4.04894 4.343 4.13868 4.25234 4.17458 4.14356L4.44381 3.29138Z"/>
  <path fill="currentColor" d="M13.7797 6.79138L14.049 7.64356C14.0849 7.75234 14.1746 7.843 14.2823 7.87926L15.1259 8.15123L14.2823 8.4232C14.1746 8.45947 14.0849 8.55012 14.049 8.65891L13.7797 9.51108L13.5105 8.65891C13.4746 8.55012 13.3849 8.45947 13.2772 8.4232L12.4336 8.15123L13.2772 7.87926C13.3849 7.843 13.4746 7.75234 13.5105 7.64356L13.7797 6.79138Z"/>
</svg>
