<?xml version="1.0"?>
<svg version="1.1" id="Layer_1" xmlns="http://www.w3.org/2000/svg" x="0px" y="0px" viewBox="0 0 607.8 449.3">
  <path d="M525.4,117.5c0,0,9.7,4,11.1,4.7c1.4,0.8,6.5,2,9.8,2.1c3.3,0.1,26.9-1.7,30.3-2.1s5.3-0.9,6.4-1.5
				c1.1-0.6,15.4-8.4,16.1-8.8s2.6-1.7,3.5-5.3c0.8-3.6,3.1-17.4,3.1-17.4s-1.4-53.2-1.4-55.2s-0.6-3.9-1.1-5.3
				c-0.5-1.4-7.3-18.5-7.3-18.5s-1.4-3-5.3-3.7s-17.1-3.7-17.1-3.7s-2.1-0.3-4.6,0.7s-18,6.8-18,6.8s-5.4,2.3-7.8,4.2
				c-2.4,2-31.6,28.7-31.6,28.7l-53.2-24.5c0,0-7.5-4.4-16.1-2s-26.8,7.8-26.8,7.8l-15.4,8.2c0,0-4.1,2-4.9,5.3
				c-0.8,3.2-7.3,39.5-7.3,39.5L368.9,110c0,0-11.1,56.2-68.7,92.2s-162.1,99.7-162.1,99.7s-55.1,32-83.4,60.5
				c-1,1.1-4.2,6.1-10.5,13.6c-2.9,3.5-15,17.3-15,17.3s-9,11.7-11.3,15.1c-2.3,3.4-7.5,14-7.5,14.1c-0.1,0.1-0.6,0.7-0.7,0.9
				C9.7,423.6,4.7,435.1,4,437c-0.6,2-2,7.8,3,8.4c5,0.6,15.5,1.2,18.4,1.2s25-0.9,52.7-11.6s33.2-13.8,33.2-13.8s28.5-15.3,33.8-18.7
				s116.3-75,133.4-85.4c17.1-10.4,109-69.6,109-69.6s28.7-19,41.7-31.4S525.4,117.5,525.4,117.5z"/>
  <path d="M31.4,433.4c0,0,89.5-42.8,119-64.6c1.8-1.4,2.1-2.8,2.1-2.8l3.3-18.1c0,0,0.7-4,3.3-5.7
				c2.6-1.7,54.8-34.8,54.8-34.8s3-1.7,6.2,0.2c3.2,1.9,11.4,7.1,11.4,7.1s1.2,1,3.1-0.3c1.9-1.2,63.3-41.1,63.3-41.1s1.1-0.9,3.4,0.1
				s13.7,5.9,13.7,5.9s1.5,0.9,3.4-0.3c1.9-1.2,28.4-18.5,28.4-18.5s1.3-0.6,2.5-3.1s10-21.8,10-21.8s0.6-1.3,1.7-1.9
				s27.2-16.6,27.2-16.6s37.7-26.1,65.1-52.2c27.3-26.1,78.1-75.2,78.1-75.2l44-43.3c0,0,7.9-7,12.3-9.4s12-6.1,12-6.1s3-1.3,3.9-0.4"/>
  <path d="M511.5,43.2l-40.2,31.4c0,0-3.8,3.3-4.5,3.9c-0.2,0.2-3.4,3.6-8.2,8.1c-6,5.6-14.3,13-19.7,18
				c-3.6,3.3-6.3,5.4-6.3,5.4l-9.3,8c0,0-19.3,17.1-26.8,14.5c-6.3-0.2,1.5-13.7,5.9-25.1c4-10.3,9.2-23.5,10.1-26
				c0.1-0.3,0.5-0.6,0.5-0.6s18.3-11.2,19.3-11.9c1-0.7,1.5-1.4,1.7-2.1c1.1-5.7,3.6-28.8,3.6-28.8l0.5-1.6c0,0,4.4-5,5.3-5.6
				s1.1-0.6,4.2-1.1c3.1-0.5,9.4-3.1,11.2-3.7c0.2-0.1,0.8-0.1,1-0.1c1,0,3.1,0.1,5,0.2c0.1,0,0.4,0,0.8,0.1c3.4,0.5,15.9,3.1,16.1,3.1
				"/>
  <path d="M525.4,117.5L567.5,80l11.2-8.2c0,0,2.1-0.5,2.3,0.1c0.3,0.6,0.7,47.6,0.7,47.6s-0.6,2.2-2,2.4"/>
  <path d="M488.5,61.2l-13.1-5.4c0,0-3.6-1.6-5.3-1.5s-3.3,0.2-4.8,0.5c-1.5,0.4-13.4,3.4-13.4,3.4s-4.4,0.8-6.1,6.1
				c-1.7,5.3-15.1,47.4-15.1,47.4"/>
  <path d="M447.6,83.7c-0.2,0.1,9.7-3.7,9.7-3.7s1.5-0.7,2.6-0.3c1.1,0.4,3.4,1.7,3.4,1.7"/>
  <path d="M563.1,83.9l1.3,22.9c0,0-0.2,1.5-2.1,1.8c-2,0.3-28.8,1.7-28.8,1.7"/>
  <path d="M415.3,24.5c0,0-6.4,1.9-7.5,6.8c-2.1,7.2-20.9,60-20.9,60s-19.9,59-62,91.9"/>
  <path d="M543.1,14.4L427.4,125.3c0,0-12.9,11.6-14.9,13.3c-2,1.7,61.6-30.4,64.7-34.6c3.1-4.2,27.9-53.1,27.9-53.1
				s59.5-32.1,60.6-32.9c1.1-0.8,7.9-3.9,7.9-3.9L588,8c0,0,4.4-1.8,5.5-0.4"/>
  <path d="M456.8,87.1l-7.4-3.3l-2.5,0.8c0,0-1.3,0.9-2.1,3.4c-0.7,2.5-4.4,14.1-4.4,14.1L456.8,87.1z"/>
  <ellipse transform="matrix(0.9487 -0.3162 0.3162 0.9487 -94.0135 57.5569)" cx="130.3" cy="318.4" rx="20.9" ry="6.1"/>
  <ellipse transform="matrix(0.9487 -0.3162 0.3162 0.9487 -94.0135 57.5569)" cx="130.3" cy="318.4" rx="17.7" ry="5.2"/>
  <path d="M229.7,262.3c5.2,3-4.6,9.7-9.4,12.7c-4.8,3-34.2,21.2-35.8,22.1s-4.3,2.2-6,2.8c-1.7,0.6-30,11.1-36.3,4.9
				c-2.9-3.2,5.8-8.3,7-8.9c1.2-0.7,31.6-19.4,41.7-25.6C204.9,261.9,224.6,259.3,229.7,262.3z"/>
  <path d="M226.1,263.7c2,1.2,2,3.9-10.8,11.6c-14.3,8.9-29.9,18.4-31.8,19.6c-1.9,1.2-4.2,2.7-6.7,3.8
				c-2.5,1.1-24.5,10.2-30.5,4.4c-2.2-2.8,5.6-7.9,5.6-7.9s35.4-21.8,39.2-24C197.2,267.5,218.4,259.2,226.1,263.7z"/>
  <polygon points="164.9,362.4 162.3,361 163.2,357.6 167.1,355 169.8,355.9 169.7,359.2 "/>
  <polygon points="166,347.7 168.9,349 173.3,345.9 173.8,342.7 171,341.7 166.9,344.3 "/>
  <polygon points="178.3,355.4 174.4,353.2 175.6,347.8 181.5,344 185.7,346.1 184.1,351.4 "/>
  <polygon points="179,360.3 176.4,359.1 172.3,361.7 171,365.5 174.3,366.2 177.8,364 "/>
  <polygon points="186.3,358.4 183.8,357.3 185.2,353.3 190.8,349.7 193.5,351 192.1,354.8 "/>
  <polygon points="197.5,342.8 192.1,346.6 187.9,344.5 189.2,339.2 194.6,335.5 198.9,337.5 "/>
  <polygon points="205,338 201.4,335.7 202.5,330.2 207.9,326.6 212.5,328.6 211,334 "/>
  <polygon points="218.7,327.3 216.2,326.1 217.2,322.5 220.9,320 223.7,321.5 222.6,325 "/>
  <polygon points="187.4,337.2 182,340.6 179.2,339.2 180,336.1 185.3,332.7 187.6,333.6 "/>
  <polygon points="199.8,349.2 197.6,348.1 199,344.8 204.1,341.4 206.7,342.5 205.1,345.9 "/>
  <polygon points="219.1,334.4 216.8,333.3 213,335.6 211.8,339.2 214.2,340.2 217.8,337.9 "/>
  <polygon points="195.2,332.1 192.3,330.7 193.2,327.1 198.4,323.7 202,325 200.9,328.4 "/>
  <polygon points="207.4,318.2 206.6,321.5 209.3,323.1 213.2,320.5 214.1,317 211.5,315.6 "/>
  <ellipse transform="matrix(0.9487 -0.3162 0.3162 0.9487 -67.8877 87.7272)" cx="236.3" cy="253" rx="13.4" ry="3.9"/>
  <ellipse transform="matrix(0.9487 -0.3162 0.3162 0.9487 -67.8877 87.7272)" cx="236.3" cy="253" rx="11.3" ry="3.3"/>
  <ellipse transform="matrix(0.9487 -0.3162 0.3162 0.9487 -54.4079 103.1643)" cx="290.6" cy="219.2" rx="8.8" ry="2.6"/>
  <ellipse transform="matrix(0.9487 -0.3162 0.3162 0.9487 -54.2568 103.0851)" cx="290.5" cy="218.7" rx="6" ry="1.8"/>
  <path d="M10.4,422.6c0,0,6.8-5.5,15.2,7.5s0.5,16.6-0.2,16.6"/>
  <path d="M11.7,419.9c0,0,7.6-6.1,16.9,8.3c9.3,14.4,0.6,18.4-0.2,18.4"/>
</svg>
