<?xml version="1.0"?>
<svg xmlns="http://www.w3.org/2000/svg" viewBox="0 0 32 32" fill="none">
  <path stroke="currentColor" d="M20.0909 7.09091C20.0909 9.35026 18.2594 11.1818 16 11.1818C13.7407 11.1818 11.9091 9.35026 11.9091 7.09091C11.9091 4.83156 13.7407 3 16 3C18.2594 3 20.0909 4.83156 20.0909 7.09091ZM16 20.8182C18.2594 20.8182 20.0909 22.6497 20.0909 24.9091C20.0909 27.1684 18.2594 29 16 29C13.7407 29 11.9091 27.1684 11.9091 24.9091C11.9091 22.6497 13.7407 20.8182 16 20.8182ZM7.09091 11.9091C9.35026 11.9091 11.1818 13.7407 11.1818 16C11.1818 18.2594 9.35026 20.0909 7.09091 20.0909C4.83156 20.0909 3 18.2594 3 16C3 13.7407 4.83156 11.9091 7.09091 11.9091ZM20.8182 16C20.8182 13.7407 22.6497 11.9091 24.9091 11.9091C27.1684 11.9091 29 13.7407 29 16C29 18.2594 27.1684 20.0909 24.9091 20.0909C22.6497 20.0909 20.8182 18.2594 20.8182 16Z" stroke-width="2"/>
</svg>
