<?xml version="1.0"?>
<svg version="1.1" id="Layer_2" xmlns="http://www.w3.org/2000/svg" x="0px" y="0px" width="256px" height="256px" viewBox="0 0 256 256">
  <path d="M236.824,5.666H19.176c-7.467,0-13.51,6.043-13.51,13.51v217.658c0,7.457,6.043,13.5,13.51,13.5h117.186v-94.746h-31.893 v-36.926h31.893V91.434c0-31.604,19.295-48.813,47.488-48.813c13.51,0,25.109,1.012,28.494,1.459v33.027l-19.553,0.01 c-15.332,0-18.299,7.293-18.299,17.975v23.58h36.576l-4.768,36.926h-31.809v94.736h62.352c7.447,0,13.49-6.043,13.49-13.51V19.176 C250.334,11.709,244.291,5.666,236.824,5.666z"/>
</svg>
