<?xml version="1.0"?>
<svg>
  <path fill="currentColor" fill-rule="evenodd" clip-rule="evenodd" d="M33.5871 3.5268L31.4417 1.38135L26.6841 6.13886C24.4873 5.49306 21.6236 5 18 5C7.5 5 3.38 9.14 3.38 9.14C3.38 9.14 0 20.56 0 25.2C0 27.1825 1.62275 28.7886 3.01931 29.8037L0.370949 32.452L2.5164 34.5975L33.5871 3.5268ZM23.2678 19.2678C23.0842 19.4513 22.8735 19.6049 22.6433 19.7232L17.3666 25H25L31 31C31 31 36 28.68 36 25.2C36 21.1218 33.3889 11.806 32.7566 9.60992L29.8137 12.5529C29.9361 12.852 30 13.1736 30 13.5C30 14.163 29.7366 14.7989 29.2678 15.2678C28.7989 15.7366 28.163 16 27.5 16C27.1736 16 26.852 15.9361 26.5529 15.8137L23.7232 18.6433C23.6049 18.8735 23.4513 19.0842 23.2678 19.2678ZM15 17H12V20H9V17H6V14H9V11H12V14H15V17Z"/>
</svg>
