<?xml version="1.0"?>
<svg viewBox="0 0 55 49" fill="black">
  <path d="M36.1497 0.664062H18.7667C16.0532 0.664062 13.8485 2.86796 13.8485 5.49568V43.3009C13.8485 46.0134 16.0532 48.1326 18.7667 48.1326H36.0649C38.7784 48.1326 40.9831 45.9287 40.9831 43.3009V5.49568C40.9831 2.78319 38.8632 0.664062 36.1497 0.664062ZM38.1848 43.3009C38.1848 44.4029 37.2521 45.3353 36.1497 45.3353H18.7667C17.6643 45.3353 16.7316 44.4029 16.7316 43.3009V42.1142H38.1848V43.3009ZM38.1848 39.317H16.7316V9.73394H38.1848V39.317ZM38.1848 6.93669H16.7316V5.49568C16.7316 4.39373 17.6643 3.46131 18.7667 3.46131H36.0649C37.1673 3.46131 38.1 4.39373 38.1 5.49568V6.93669H38.1848ZM44.7988 14.7351C44.2053 14.9894 43.9509 15.5827 44.1205 16.1761C45.7316 20.3296 45.7316 24.9069 44.1205 29.0604C43.8661 29.6538 44.2053 30.3319 44.7988 30.5014C44.9684 30.5862 45.0532 30.5862 45.2228 30.5862C45.7316 30.5862 46.1556 30.3319 46.3252 29.8233C48.1907 25.1612 48.1907 19.9905 46.3252 15.2437C46.0708 14.8198 45.3924 14.4808 44.7988 14.7351ZM10.1176 14.7351C9.52399 14.4808 8.84562 14.8198 8.67603 15.4132C6.81054 20.0753 6.81054 25.246 8.67603 29.9928C8.84562 30.4166 9.2696 30.7557 9.77837 30.7557C9.94796 30.7557 10.0328 30.7557 10.2023 30.6709C10.7959 30.4166 11.0503 29.8233 10.8807 29.2299C9.2696 25.0764 9.2696 20.4991 10.8807 16.3456C10.9655 15.5827 10.7111 14.9894 10.1176 14.7351ZM52.3456 11.9378C52.0912 11.3445 51.4977 11.0902 50.9041 11.2597C50.3105 11.514 50.0562 12.1074 50.2257 12.7007V12.7855C52.9392 19.0581 52.9392 26.2631 50.2257 32.451C50.1409 32.7053 50.0562 33.0444 50.2257 33.2987C50.3105 33.553 50.5649 33.8072 50.8193 33.892C50.9889 33.9768 51.0737 33.9768 51.2433 33.9768C51.6673 33.9768 52.0912 33.7225 52.2608 33.2987C55.3135 26.6022 55.3135 18.719 52.3456 11.9378ZM4.69065 12.7855C4.94504 12.1921 4.69065 11.514 4.09709 11.2597C3.8427 11.1749 3.50352 11.0902 3.24913 11.2597C2.99475 11.3445 2.74036 11.5988 2.65557 11.8531C-0.312272 18.719 -0.312272 26.5174 2.65557 33.3834C2.82516 33.8072 3.24913 34.0615 3.67311 34.0615C3.8427 34.0615 4.01229 34.0615 4.09709 33.9768C4.35147 33.892 4.60586 33.6377 4.69065 33.3834C4.77545 33.1291 4.77545 32.7901 4.69065 32.5358C1.9772 26.2631 1.9772 19.0581 4.69065 12.7855ZM20.3778 15.9218C21.2257 15.9218 21.8193 15.2437 21.8193 14.4808C21.8193 13.7179 21.1409 13.0398 20.3778 13.0398C19.6146 13.0398 18.9363 13.7179 18.9363 14.4808C18.9363 15.2437 19.6146 15.9218 20.3778 15.9218ZM24.1088 15.9218C24.9567 15.9218 25.5503 15.2437 25.5503 14.4808C25.5503 13.7179 24.8719 13.0398 24.1088 13.0398C23.2608 13.0398 22.6673 13.7179 22.6673 14.4808C22.5825 15.2437 23.2608 15.9218 24.1088 15.9218ZM27.755 15.9218C28.6029 15.9218 29.1965 15.2437 29.1965 14.4808C29.1965 13.7179 28.5181 13.0398 27.755 13.0398C26.907 13.0398 26.3135 13.7179 26.3135 14.4808C26.3135 15.2437 26.9918 15.9218 27.755 15.9218ZM31.4012 15.9218C32.2491 15.9218 32.8427 15.2437 32.8427 14.4808C32.8427 13.7179 32.1643 13.0398 31.4012 13.0398C30.5532 13.0398 29.9597 13.7179 29.9597 14.4808C29.9597 15.2437 30.638 15.9218 31.4012 15.9218ZM35.1322 15.9218C35.9801 15.9218 36.5737 15.2437 36.5737 14.4808C36.5737 13.7179 35.8953 13.0398 35.1322 13.0398C34.2842 13.0398 33.6907 13.7179 33.6907 14.4808C33.6059 15.2437 34.2842 15.9218 35.1322 15.9218Z" fill="#1A99FF"/>
</svg>
