<?xml version="1.0"?>
<svg version="1.1" id="Layer_2" xmlns="http://www.w3.org/2000/svg" x="0px" y="0px" width="256px" height="256px" viewBox="0 0 256 256">
  <path d="M224.389,62.411H31.613c-10.147,0-18.36,8.214-18.36,18.36v94.453c0,10.147,8.215,18.359,18.36,18.359h192.775 c10.146,0.241,18.358-7.968,18.358-18.116V80.771C242.747,70.625,234.534,62.411,224.389,62.411z M92.317,175.026H71.646 L35.472,79.832h21.895l25.022,72.484l24.343-72.484h21.895L92.317,175.026z M195.264,175.026l-19.175-32.095h-2.176h-14.279 v32.095h-19.991V79.832h35.63c13.056,0,22.664,2.607,28.831,7.819c6.164,5.215,9.247,12.49,9.247,21.827 c0,7.343-1.61,13.463-4.828,18.359c-3.219,4.896-7.729,8.614-13.531,11.151l22.575,36.038H195.264z"/>
  <path d="M187.784,100.298c-2.812-2.312-7.391-3.468-13.735-3.468h-14.415v28.966h15.639c5.257,0,9.36-1.336,12.308-4.012 c2.945-2.673,4.42-6.368,4.42-11.083C192,106.078,190.593,102.61,187.784,100.298z"/>
</svg>
