<?xml version="1.0"?>
<svg viewBox="0 0 296 296" xmlns="http://www.w3.org/2000/svg" xmlnsXlink="http://www.w3.org/1999/xlink">
  <defs>
    <rect id="p" width="8" height="8"/>
  </defs>
  <g fill="currentColor">
    <use xlinkHref="#p" x="32" y="32"/>
    <use xlinkHref="#p" x="32" y="40"/>
    <use xlinkHref="#p" x="32" y="48"/>
    <use xlinkHref="#p" x="32" y="56"/>
    <use xlinkHref="#p" x="32" y="64"/>
    <use xlinkHref="#p" x="32" y="72"/>
    <use xlinkHref="#p" x="32" y="80"/>
    <use xlinkHref="#p" x="32" y="104"/>
    <use xlinkHref="#p" x="32" y="120"/>
    <use xlinkHref="#p" x="32" y="128"/>
    <use xlinkHref="#p" x="32" y="136"/>
    <use xlinkHref="#p" x="32" y="208"/>
    <use xlinkHref="#p" x="32" y="216"/>
    <use xlinkHref="#p" x="32" y="224"/>
    <use xlinkHref="#p" x="32" y="232"/>
    <use xlinkHref="#p" x="32" y="240"/>
    <use xlinkHref="#p" x="32" y="248"/>
    <use xlinkHref="#p" x="32" y="256"/>
    <use xlinkHref="#p" x="40" y="32"/>
    <use xlinkHref="#p" x="40" y="80"/>
    <use xlinkHref="#p" x="40" y="96"/>
    <use xlinkHref="#p" x="40" y="104"/>
    <use xlinkHref="#p" x="40" y="120"/>
    <use xlinkHref="#p" x="40" y="128"/>
    <use xlinkHref="#p" x="40" y="144"/>
    <use xlinkHref="#p" x="40" y="152"/>
    <use xlinkHref="#p" x="40" y="168"/>
    <use xlinkHref="#p" x="40" y="208"/>
    <use xlinkHref="#p" x="40" y="256"/>
    <use xlinkHref="#p" x="48" y="32"/>
    <use xlinkHref="#p" x="48" y="48"/>
    <use xlinkHref="#p" x="48" y="56"/>
    <use xlinkHref="#p" x="48" y="64"/>
    <use xlinkHref="#p" x="48" y="80"/>
    <use xlinkHref="#p" x="48" y="104"/>
    <use xlinkHref="#p" x="48" y="120"/>
    <use xlinkHref="#p" x="48" y="168"/>
    <use xlinkHref="#p" x="48" y="192"/>
    <use xlinkHref="#p" x="48" y="208"/>
    <use xlinkHref="#p" x="48" y="224"/>
    <use xlinkHref="#p" x="48" y="232"/>
    <use xlinkHref="#p" x="48" y="240"/>
    <use xlinkHref="#p" x="48" y="256"/>
    <use xlinkHref="#p" x="56" y="32"/>
    <use xlinkHref="#p" x="56" y="48"/>
    <use xlinkHref="#p" x="56" y="56"/>
    <use xlinkHref="#p" x="56" y="64"/>
    <use xlinkHref="#p" x="56" y="80"/>
    <use xlinkHref="#p" x="56" y="96"/>
    <use xlinkHref="#p" x="56" y="104"/>
    <use xlinkHref="#p" x="56" y="112"/>
    <use xlinkHref="#p" x="56" y="144"/>
    <use xlinkHref="#p" x="56" y="176"/>
    <use xlinkHref="#p" x="56" y="184"/>
    <use xlinkHref="#p" x="56" y="208"/>
    <use xlinkHref="#p" x="56" y="224"/>
    <use xlinkHref="#p" x="56" y="232"/>
    <use xlinkHref="#p" x="56" y="240"/>
    <use xlinkHref="#p" x="56" y="256"/>
    <use xlinkHref="#p" x="64" y="32"/>
    <use xlinkHref="#p" x="64" y="48"/>
    <use xlinkHref="#p" x="64" y="56"/>
    <use xlinkHref="#p" x="64" y="64"/>
    <use xlinkHref="#p" x="64" y="80"/>
    <use xlinkHref="#p" x="64" y="96"/>
    <use xlinkHref="#p" x="64" y="112"/>
    <use xlinkHref="#p" x="64" y="128"/>
    <use xlinkHref="#p" x="64" y="136"/>
    <use xlinkHref="#p" x="64" y="160"/>
    <use xlinkHref="#p" x="64" y="176"/>
    <use xlinkHref="#p" x="64" y="208"/>
    <use xlinkHref="#p" x="64" y="224"/>
    <use xlinkHref="#p" x="64" y="232"/>
    <use xlinkHref="#p" x="64" y="240"/>
    <use xlinkHref="#p" x="64" y="256"/>
    <use xlinkHref="#p" x="72" y="32"/>
    <use xlinkHref="#p" x="72" y="80"/>
    <use xlinkHref="#p" x="72" y="96"/>
    <use xlinkHref="#p" x="72" y="104"/>
    <use xlinkHref="#p" x="72" y="160"/>
    <use xlinkHref="#p" x="72" y="208"/>
    <use xlinkHref="#p" x="72" y="256"/>
    <use xlinkHref="#p" x="80" y="32"/>
    <use xlinkHref="#p" x="80" y="40"/>
    <use xlinkHref="#p" x="80" y="48"/>
    <use xlinkHref="#p" x="80" y="56"/>
    <use xlinkHref="#p" x="80" y="64"/>
    <use xlinkHref="#p" x="80" y="72"/>
    <use xlinkHref="#p" x="80" y="80"/>
    <use xlinkHref="#p" x="80" y="96"/>
    <use xlinkHref="#p" x="80" y="112"/>
    <use xlinkHref="#p" x="80" y="128"/>
    <use xlinkHref="#p" x="80" y="144"/>
    <use xlinkHref="#p" x="80" y="160"/>
    <use xlinkHref="#p" x="80" y="176"/>
    <use xlinkHref="#p" x="80" y="192"/>
    <use xlinkHref="#p" x="80" y="208"/>
    <use xlinkHref="#p" x="80" y="216"/>
    <use xlinkHref="#p" x="80" y="224"/>
    <use xlinkHref="#p" x="80" y="232"/>
    <use xlinkHref="#p" x="80" y="240"/>
    <use xlinkHref="#p" x="80" y="248"/>
    <use xlinkHref="#p" x="80" y="256"/>
    <use xlinkHref="#p" x="88" y="104"/>
    <use xlinkHref="#p" x="88" y="120"/>
    <use xlinkHref="#p" x="88" y="128"/>
    <use xlinkHref="#p" x="88" y="144"/>
    <use xlinkHref="#p" x="88" y="160"/>
    <use xlinkHref="#p" x="88" y="168"/>
    <use xlinkHref="#p" x="88" y="176"/>
    <use xlinkHref="#p" x="96" y="40"/>
    <use xlinkHref="#p" x="96" y="56"/>
    <use xlinkHref="#p" x="96" y="64"/>
    <use xlinkHref="#p" x="96" y="80"/>
    <use xlinkHref="#p" x="96" y="88"/>
    <use xlinkHref="#p" x="96" y="96"/>
    <use xlinkHref="#p" x="96" y="120"/>
    <use xlinkHref="#p" x="96" y="152"/>
    <use xlinkHref="#p" x="96" y="160"/>
    <use xlinkHref="#p" x="96" y="176"/>
    <use xlinkHref="#p" x="96" y="200"/>
    <use xlinkHref="#p" x="96" y="216"/>
    <use xlinkHref="#p" x="96" y="224"/>
    <use xlinkHref="#p" x="96" y="232"/>
    <use xlinkHref="#p" x="96" y="248"/>
    <use xlinkHref="#p" x="104" y="56"/>
    <use xlinkHref="#p" x="104" y="64"/>
    <use xlinkHref="#p" x="104" y="96"/>
    <use xlinkHref="#p" x="104" y="112"/>
    <use xlinkHref="#p" x="104" y="120"/>
    <use xlinkHref="#p" x="104" y="136"/>
    <use xlinkHref="#p" x="104" y="152"/>
    <use xlinkHref="#p" x="104" y="168"/>
    <use xlinkHref="#p" x="104" y="176"/>
    <use xlinkHref="#p" x="104" y="192"/>
    <use xlinkHref="#p" x="104" y="216"/>
    <use xlinkHref="#p" x="104" y="232"/>
    <use xlinkHref="#p" x="104" y="256"/>
    <use xlinkHref="#p" x="112" y="32"/>
    <use xlinkHref="#p" x="112" y="40"/>
    <use xlinkHref="#p" x="112" y="48"/>
    <use xlinkHref="#p" x="112" y="56"/>
    <use xlinkHref="#p" x="112" y="64"/>
    <use xlinkHref="#p" x="112" y="80"/>
    <use xlinkHref="#p" x="112" y="96"/>
    <use xlinkHref="#p" x="112" y="160"/>
    <use xlinkHref="#p" x="112" y="216"/>
    <use xlinkHref="#p" x="112" y="232"/>
    <use xlinkHref="#p" x="112" y="240"/>
    <use xlinkHref="#p" x="112" y="248"/>
    <use xlinkHref="#p" x="112" y="256"/>
    <use xlinkHref="#p" x="120" y="56"/>
    <use xlinkHref="#p" x="120" y="88"/>
    <use xlinkHref="#p" x="120" y="112"/>
    <use xlinkHref="#p" x="120" y="136"/>
    <use xlinkHref="#p" x="120" y="152"/>
    <use xlinkHref="#p" x="120" y="160"/>
    <use xlinkHref="#p" x="120" y="184"/>
    <use xlinkHref="#p" x="120" y="208"/>
    <use xlinkHref="#p" x="120" y="216"/>
    <use xlinkHref="#p" x="120" y="256"/>
    <use xlinkHref="#p" x="128" y="32"/>
    <use xlinkHref="#p" x="128" y="80"/>
    <use xlinkHref="#p" x="128" y="88"/>
    <use xlinkHref="#p" x="128" y="104"/>
    <use xlinkHref="#p" x="128" y="112"/>
    <use xlinkHref="#p" x="128" y="128"/>
    <use xlinkHref="#p" x="128" y="144"/>
    <use xlinkHref="#p" x="128" y="160"/>
    <use xlinkHref="#p" x="128" y="168"/>
    <use xlinkHref="#p" x="128" y="176"/>
    <use xlinkHref="#p" x="128" y="208"/>
    <use xlinkHref="#p" x="128" y="240"/>
    <use xlinkHref="#p" x="128" y="248"/>
    <use xlinkHref="#p" x="128" y="256"/>
    <use xlinkHref="#p" x="136" y="40"/>
    <use xlinkHref="#p" x="136" y="56"/>
    <use xlinkHref="#p" x="136" y="64"/>
    <use xlinkHref="#p" x="136" y="96"/>
    <use xlinkHref="#p" x="136" y="112"/>
    <use xlinkHref="#p" x="136" y="144"/>
    <use xlinkHref="#p" x="136" y="160"/>
    <use xlinkHref="#p" x="136" y="184"/>
    <use xlinkHref="#p" x="136" y="200"/>
    <use xlinkHref="#p" x="136" y="208"/>
    <use xlinkHref="#p" x="136" y="224"/>
    <use xlinkHref="#p" x="136" y="232"/>
    <use xlinkHref="#p" x="144" y="56"/>
    <use xlinkHref="#p" x="144" y="64"/>
    <use xlinkHref="#p" x="144" y="72"/>
    <use xlinkHref="#p" x="144" y="80"/>
    <use xlinkHref="#p" x="144" y="88"/>
    <use xlinkHref="#p" x="144" y="96"/>
    <use xlinkHref="#p" x="144" y="120"/>
    <use xlinkHref="#p" x="144" y="128"/>
    <use xlinkHref="#p" x="144" y="168"/>
    <use xlinkHref="#p" x="144" y="192"/>
    <use xlinkHref="#p" x="144" y="208"/>
    <use xlinkHref="#p" x="144" y="232"/>
    <use xlinkHref="#p" x="144" y="240"/>
    <use xlinkHref="#p" x="144" y="256"/>
    <use xlinkHref="#p" x="152" y="40"/>
    <use xlinkHref="#p" x="152" y="96"/>
    <use xlinkHref="#p" x="152" y="128"/>
    <use xlinkHref="#p" x="152" y="136"/>
    <use xlinkHref="#p" x="152" y="184"/>
    <use xlinkHref="#p" x="152" y="200"/>
    <use xlinkHref="#p" x="152" y="208"/>
    <use xlinkHref="#p" x="152" y="216"/>
    <use xlinkHref="#p" x="152" y="240"/>
    <use xlinkHref="#p" x="152" y="256"/>
    <use xlinkHref="#p" x="160" y="48"/>
    <use xlinkHref="#p" x="160" y="72"/>
    <use xlinkHref="#p" x="160" y="80"/>
    <use xlinkHref="#p" x="160" y="96"/>
    <use xlinkHref="#p" x="160" y="112"/>
    <use xlinkHref="#p" x="160" y="144"/>
    <use xlinkHref="#p" x="160" y="152"/>
    <use xlinkHref="#p" x="160" y="176"/>
    <use xlinkHref="#p" x="160" y="184"/>
    <use xlinkHref="#p" x="160" y="192"/>
    <use xlinkHref="#p" x="160" y="208"/>
    <use xlinkHref="#p" x="160" y="248"/>
    <use xlinkHref="#p" x="168" y="32"/>
    <use xlinkHref="#p" x="168" y="56"/>
    <use xlinkHref="#p" x="168" y="88"/>
    <use xlinkHref="#p" x="168" y="112"/>
    <use xlinkHref="#p" x="168" y="120"/>
    <use xlinkHref="#p" x="168" y="160"/>
    <use xlinkHref="#p" x="168" y="168"/>
    <use xlinkHref="#p" x="168" y="176"/>
    <use xlinkHref="#p" x="168" y="192"/>
    <use xlinkHref="#p" x="168" y="200"/>
    <use xlinkHref="#p" x="168" y="224"/>
    <use xlinkHref="#p" x="168" y="232"/>
    <use xlinkHref="#p" x="176" y="48"/>
    <use xlinkHref="#p" x="176" y="64"/>
    <use xlinkHref="#p" x="176" y="80"/>
    <use xlinkHref="#p" x="176" y="88"/>
    <use xlinkHref="#p" x="176" y="104"/>
    <use xlinkHref="#p" x="176" y="136"/>
    <use xlinkHref="#p" x="176" y="144"/>
    <use xlinkHref="#p" x="176" y="160"/>
    <use xlinkHref="#p" x="176" y="176"/>
    <use xlinkHref="#p" x="176" y="200"/>
    <use xlinkHref="#p" x="176" y="216"/>
    <use xlinkHref="#p" x="176" y="232"/>
    <use xlinkHref="#p" x="176" y="256"/>
    <use xlinkHref="#p" x="184" y="32"/>
    <use xlinkHref="#p" x="184" y="40"/>
    <use xlinkHref="#p" x="184" y="48"/>
    <use xlinkHref="#p" x="184" y="64"/>
    <use xlinkHref="#p" x="184" y="112"/>
    <use xlinkHref="#p" x="184" y="120"/>
    <use xlinkHref="#p" x="184" y="144"/>
    <use xlinkHref="#p" x="184" y="152"/>
    <use xlinkHref="#p" x="184" y="176"/>
    <use xlinkHref="#p" x="184" y="184"/>
    <use xlinkHref="#p" x="184" y="192"/>
    <use xlinkHref="#p" x="184" y="200"/>
    <use xlinkHref="#p" x="184" y="208"/>
    <use xlinkHref="#p" x="184" y="216"/>
    <use xlinkHref="#p" x="184" y="224"/>
    <use xlinkHref="#p" x="184" y="248"/>
    <use xlinkHref="#p" x="184" y="256"/>
    <use xlinkHref="#p" x="192" y="32"/>
    <use xlinkHref="#p" x="192" y="80"/>
    <use xlinkHref="#p" x="192" y="112"/>
    <use xlinkHref="#p" x="192" y="120"/>
    <use xlinkHref="#p" x="192" y="128"/>
    <use xlinkHref="#p" x="192" y="136"/>
    <use xlinkHref="#p" x="192" y="144"/>
    <use xlinkHref="#p" x="192" y="152"/>
    <use xlinkHref="#p" x="192" y="160"/>
    <use xlinkHref="#p" x="192" y="176"/>
    <use xlinkHref="#p" x="192" y="184"/>
    <use xlinkHref="#p" x="192" y="192"/>
    <use xlinkHref="#p" x="192" y="200"/>
    <use xlinkHref="#p" x="192" y="208"/>
    <use xlinkHref="#p" x="192" y="216"/>
    <use xlinkHref="#p" x="192" y="224"/>
    <use xlinkHref="#p" x="192" y="240"/>
    <use xlinkHref="#p" x="192" y="256"/>
    <use xlinkHref="#p" x="200" y="96"/>
    <use xlinkHref="#p" x="200" y="104"/>
    <use xlinkHref="#p" x="200" y="112"/>
    <use xlinkHref="#p" x="200" y="128"/>
    <use xlinkHref="#p" x="200" y="168"/>
    <use xlinkHref="#p" x="200" y="184"/>
    <use xlinkHref="#p" x="200" y="192"/>
    <use xlinkHref="#p" x="200" y="224"/>
    <use xlinkHref="#p" x="200" y="240"/>
    <use xlinkHref="#p" x="200" y="248"/>
    <use xlinkHref="#p" x="208" y="32"/>
    <use xlinkHref="#p" x="208" y="40"/>
    <use xlinkHref="#p" x="208" y="48"/>
    <use xlinkHref="#p" x="208" y="56"/>
    <use xlinkHref="#p" x="208" y="64"/>
    <use xlinkHref="#p" x="208" y="72"/>
    <use xlinkHref="#p" x="208" y="80"/>
    <use xlinkHref="#p" x="208" y="96"/>
    <use xlinkHref="#p" x="208" y="112"/>
    <use xlinkHref="#p" x="208" y="128"/>
    <use xlinkHref="#p" x="208" y="136"/>
    <use xlinkHref="#p" x="208" y="144"/>
    <use xlinkHref="#p" x="208" y="152"/>
    <use xlinkHref="#p" x="208" y="184"/>
    <use xlinkHref="#p" x="208" y="192"/>
    <use xlinkHref="#p" x="208" y="208"/>
    <use xlinkHref="#p" x="208" y="224"/>
    <use xlinkHref="#p" x="208" y="248"/>
    <use xlinkHref="#p" x="216" y="32"/>
    <use xlinkHref="#p" x="216" y="80"/>
    <use xlinkHref="#p" x="216" y="104"/>
    <use xlinkHref="#p" x="216" y="144"/>
    <use xlinkHref="#p" x="216" y="160"/>
    <use xlinkHref="#p" x="216" y="192"/>
    <use xlinkHref="#p" x="216" y="224"/>
    <use xlinkHref="#p" x="216" y="232"/>
    <use xlinkHref="#p" x="216" y="240"/>
    <use xlinkHref="#p" x="216" y="256"/>
    <use xlinkHref="#p" x="224" y="32"/>
    <use xlinkHref="#p" x="224" y="48"/>
    <use xlinkHref="#p" x="224" y="56"/>
    <use xlinkHref="#p" x="224" y="64"/>
    <use xlinkHref="#p" x="224" y="80"/>
    <use xlinkHref="#p" x="224" y="96"/>
    <use xlinkHref="#p" x="224" y="104"/>
    <use xlinkHref="#p" x="224" y="112"/>
    <use xlinkHref="#p" x="224" y="120"/>
    <use xlinkHref="#p" x="224" y="136"/>
    <use xlinkHref="#p" x="224" y="152"/>
    <use xlinkHref="#p" x="224" y="168"/>
    <use xlinkHref="#p" x="224" y="184"/>
    <use xlinkHref="#p" x="224" y="192"/>
    <use xlinkHref="#p" x="224" y="200"/>
    <use xlinkHref="#p" x="224" y="208"/>
    <use xlinkHref="#p" x="224" y="216"/>
    <use xlinkHref="#p" x="224" y="224"/>
    <use xlinkHref="#p" x="224" y="240"/>
    <use xlinkHref="#p" x="224" y="248"/>
    <use xlinkHref="#p" x="224" y="256"/>
    <use xlinkHref="#p" x="232" y="32"/>
    <use xlinkHref="#p" x="232" y="48"/>
    <use xlinkHref="#p" x="232" y="56"/>
    <use xlinkHref="#p" x="232" y="64"/>
    <use xlinkHref="#p" x="232" y="80"/>
    <use xlinkHref="#p" x="232" y="96"/>
    <use xlinkHref="#p" x="232" y="112"/>
    <use xlinkHref="#p" x="232" y="120"/>
    <use xlinkHref="#p" x="232" y="128"/>
    <use xlinkHref="#p" x="232" y="144"/>
    <use xlinkHref="#p" x="232" y="152"/>
    <use xlinkHref="#p" x="232" y="160"/>
    <use xlinkHref="#p" x="232" y="184"/>
    <use xlinkHref="#p" x="232" y="192"/>
    <use xlinkHref="#p" x="232" y="200"/>
    <use xlinkHref="#p" x="232" y="216"/>
    <use xlinkHref="#p" x="232" y="248"/>
    <use xlinkHref="#p" x="232" y="256"/>
    <use xlinkHref="#p" x="240" y="32"/>
    <use xlinkHref="#p" x="240" y="48"/>
    <use xlinkHref="#p" x="240" y="56"/>
    <use xlinkHref="#p" x="240" y="64"/>
    <use xlinkHref="#p" x="240" y="80"/>
    <use xlinkHref="#p" x="240" y="104"/>
    <use xlinkHref="#p" x="240" y="136"/>
    <use xlinkHref="#p" x="240" y="152"/>
    <use xlinkHref="#p" x="240" y="168"/>
    <use xlinkHref="#p" x="240" y="184"/>
    <use xlinkHref="#p" x="240" y="192"/>
    <use xlinkHref="#p" x="240" y="200"/>
    <use xlinkHref="#p" x="240" y="208"/>
    <use xlinkHref="#p" x="240" y="240"/>
    <use xlinkHref="#p" x="240" y="248"/>
    <use xlinkHref="#p" x="248" y="32"/>
    <use xlinkHref="#p" x="248" y="80"/>
    <use xlinkHref="#p" x="248" y="96"/>
    <use xlinkHref="#p" x="248" y="104"/>
    <use xlinkHref="#p" x="248" y="128"/>
    <use xlinkHref="#p" x="248" y="152"/>
    <use xlinkHref="#p" x="248" y="184"/>
    <use xlinkHref="#p" x="248" y="192"/>
    <use xlinkHref="#p" x="248" y="232"/>
    <use xlinkHref="#p" x="248" y="240"/>
    <use xlinkHref="#p" x="256" y="32"/>
    <use xlinkHref="#p" x="256" y="40"/>
    <use xlinkHref="#p" x="256" y="48"/>
    <use xlinkHref="#p" x="256" y="56"/>
    <use xlinkHref="#p" x="256" y="64"/>
    <use xlinkHref="#p" x="256" y="72"/>
    <use xlinkHref="#p" x="256" y="80"/>
    <use xlinkHref="#p" x="256" y="120"/>
    <use xlinkHref="#p" x="256" y="136"/>
    <use xlinkHref="#p" x="256" y="144"/>
    <use xlinkHref="#p" x="256" y="152"/>
    <use xlinkHref="#p" x="256" y="176"/>
    <use xlinkHref="#p" x="256" y="216"/>
    <use xlinkHref="#p" x="256" y="224"/>
    <use xlinkHref="#p" x="256" y="240"/>
    <use xlinkHref="#p" x="256" y="248"/>
  </g>
</svg>
