<?xml version="1.0"?>
<svg xmlns="http://www.w3.org/2000/svg" viewBox="0 0 476 161" fill="black">
  <path stroke="currentColor" d="M73.1533 12.7214V1.63894C73.1533 1.04606 72.6727 0.56543 72.0798 0.56543H2.37282C1.77994 0.56543 1.29932 1.04605 1.29932 1.63893V158.743C1.29932 159.336 1.77994 159.816 2.37283 159.816H72.0798C72.6727 159.816 73.1533 159.336 73.1533 158.743V135.162"/>
  <path stroke="currentColor" opacity="0.7" d="M42.1007 31.6514H9.45837C8.47023 31.6514 7.66919 32.4524 7.66919 33.4405V151.657C7.66919 152.645 8.47023 153.446 9.45837 153.446H64.994C65.9821 153.446 66.7831 152.645 66.7831 151.657V135.291" stroke-width="0.33"/>
  <path stroke="currentColor" opacity="0.7" d="M66.7831 12.812V8.72473C66.7831 7.73659 65.9821 6.93555 64.994 6.93555H9.45837C8.47023 6.93555 7.66919 7.73659 7.66919 8.72473V23.4921C7.66919 24.4802 8.47023 25.2813 9.45837 25.2813H42.2381" stroke-width="0.33"/>
  <circle stroke="currentColor" cx="16.8424" cy="16.109" r="3.79487" stroke-width="1.07351"/>
  <mask fill="currentColor">
    <path fill-rule="evenodd" clip-rule="evenodd" d="M42.8861 12.2861C42.2932 12.2861 41.8126 12.7668 41.8126 13.3596V134.537C41.8126 135.129 42.2932 135.61 42.8861 135.61H133.924V154.211H108.189C107.626 154.211 107.17 154.667 107.17 155.23V158.797C107.17 159.36 107.626 159.816 108.189 159.816H192.783C193.346 159.816 193.802 159.36 193.802 158.797V155.23C193.802 154.667 193.346 154.211 192.783 154.211H167.048V135.61H258.085C258.678 135.61 259.158 135.129 259.158 134.537V13.3596C259.158 12.7668 258.678 12.2861 258.085 12.2861H42.8861Z"/>
  </mask>
  <path fill="currentColor" d="M133.924 135.61H134.924V134.61H133.924V135.61ZM133.924 154.211V155.211H134.924V154.211H133.924ZM167.048 154.211H166.048V155.211H167.048V154.211ZM167.048 135.61V134.61H166.048V135.61H167.048ZM42.8126 13.3596C42.8126 13.319 42.8455 13.2861 42.8861 13.2861V11.2861C41.741 11.2861 40.8126 12.2145 40.8126 13.3596H42.8126ZM42.8126 134.537V13.3596H40.8126V134.537H42.8126ZM42.8861 134.61C42.8455 134.61 42.8126 134.577 42.8126 134.537H40.8126C40.8126 135.682 41.7409 136.61 42.8861 136.61V134.61ZM133.924 134.61H42.8861V136.61H133.924V134.61ZM132.924 135.61V154.211H134.924V135.61H132.924ZM133.924 153.211H108.189V155.211H133.924V153.211ZM108.189 153.211C107.074 153.211 106.17 154.115 106.17 155.23H108.17C108.17 155.225 108.17 155.224 108.171 155.223C108.171 155.221 108.173 155.219 108.175 155.216C108.178 155.214 108.18 155.212 108.182 155.212C108.183 155.211 108.184 155.211 108.189 155.211V153.211ZM106.17 155.23V158.797H108.17V155.23H106.17ZM106.17 158.797C106.17 159.912 107.074 160.816 108.189 160.816V158.816C108.184 158.816 108.183 158.816 108.182 158.815C108.18 158.815 108.178 158.813 108.175 158.811C108.173 158.808 108.171 158.806 108.171 158.804C108.17 158.803 108.17 158.802 108.17 158.797H106.17ZM108.189 160.816H192.783V158.816H108.189V160.816ZM192.783 160.816C193.898 160.816 194.802 159.912 194.802 158.797H192.802C192.802 158.802 192.801 158.803 192.801 158.804C192.8 158.806 192.799 158.808 192.796 158.811C192.794 158.813 192.792 158.815 192.79 158.815C192.789 158.816 192.787 158.816 192.783 158.816V160.816ZM194.802 158.797V155.23H192.802V158.797H194.802ZM194.802 155.23C194.802 154.115 193.898 153.211 192.783 153.211V155.211C192.787 155.211 192.789 155.211 192.79 155.212C192.792 155.212 192.794 155.214 192.796 155.216C192.799 155.219 192.8 155.221 192.801 155.223C192.801 155.224 192.802 155.225 192.802 155.23H194.802ZM192.783 153.211H167.048V155.211H192.783V153.211ZM168.048 154.211V135.61H166.048V154.211H168.048ZM258.085 134.61H167.048V136.61H258.085V134.61ZM258.158 134.537C258.158 134.577 258.125 134.61 258.085 134.61V136.61C259.23 136.61 260.158 135.682 260.158 134.537H258.158ZM258.158 13.3596V134.537H260.158V13.3596H258.158ZM258.085 13.2861C258.125 13.2861 258.158 13.319 258.158 13.3596H260.158C260.158 12.2145 259.23 11.2861 258.085 11.2861V13.2861ZM42.8861 13.2861H258.085V11.2861H42.8861V13.2861Z"/>
  <rect stroke="currentColor" opacity="0.7" x="48.4718" y="18.8213" width="204.021" height="110.254" rx="1.62418" stroke-width="0.33"/>
  <g opacity="0.5">
    <path stroke="currentColor" d="M317.465 52.398C317.465 52.398 318.536 50.5841 322.482 50.0296C325.237 49.6427 337.161 49.8571 337.161 49.8571C337.161 49.8571 338.552 50.0567 338.552 50.7567M469.559 52.398C469.559 52.398 468.489 50.5841 464.542 50.0296C461.787 49.6427 449.864 49.8571 449.864 49.8571C449.864 49.8571 448.473 50.0567 448.473 50.7567M312.438 72.9553H319.746C321.321 72.9553 322.598 74.2327 322.598 75.8084V86.8146C322.598 89.1677 323.325 91.4634 324.68 93.3871L337.388 111.433C337.855 112.097 338.106 112.89 338.106 113.702M474.824 72.9553H467.516C465.941 72.9553 464.664 74.2327 464.664 75.8084V86.8146C464.664 89.1677 463.937 91.4634 462.582 93.3871L449.875 111.433C449.407 112.097 449.156 112.89 449.156 113.702M342.653 90.0932H329.888C328.672 90.0932 327.687 89.1074 327.687 87.8899V75.1137C327.687 73.8962 328.672 72.9104 329.888 72.9104H342.651C343.867 72.9104 344.851 73.8962 344.851 75.1137V87.8899C344.854 89.1074 343.867 90.0932 342.653 90.0932ZM343.128 96.9175H337.995C337.042 96.9175 336.269 96.1436 336.269 95.1899C336.269 94.2361 337.042 93.4622 337.995 93.4622H343.128C344.081 93.4622 344.854 94.2361 344.854 95.1899C344.854 96.1436 344.081 96.9175 343.128 96.9175ZM332.656 55.4692H330.052C329.463 55.4692 328.988 54.9911 328.988 54.4045C328.988 53.8155 329.466 53.3399 330.052 53.3399H332.656C333.244 53.3399 333.72 53.818 333.72 54.4045C333.722 54.9911 333.244 55.4692 332.656 55.4692ZM343.491 63.4377C343.491 66.4539 341.049 68.8991 338.036 68.8991C335.023 68.8991 332.58 66.4539 332.58 63.4377C332.58 60.4214 335.023 57.9762 338.036 57.9762C341.049 57.9762 343.491 60.4214 343.491 63.4377ZM341.733 63.5376C341.733 65.6242 340.043 67.3157 337.959 67.3157C335.874 67.3157 334.185 65.6242 334.185 63.5376C334.185 61.451 335.874 59.7594 337.959 59.7594C340.043 59.7594 341.733 61.451 341.733 63.5376ZM344.908 104.213H343.658C343.468 104.213 343.313 104.057 343.313 103.868C343.313 103.678 343.468 103.522 343.658 103.522H344.908C345.098 103.522 345.253 103.678 345.253 103.868C345.255 104.06 345.1 104.213 344.908 104.213ZM342.527 104.213H341.277C341.087 104.213 340.932 104.057 340.932 103.868C340.932 103.678 341.087 103.522 341.277 103.522H342.527C342.717 103.522 342.872 103.678 342.872 103.868C342.872 104.06 342.719 104.213 342.527 104.213ZM340.147 104.213H338.896C338.707 104.213 338.552 104.057 338.552 103.868C338.552 103.678 338.707 103.522 338.896 103.522H340.147C340.337 103.522 340.492 103.678 340.492 103.868C340.492 104.06 340.337 104.213 340.147 104.213ZM344.908 100.814H343.657C343.468 100.814 343.313 100.659 343.313 100.469C343.313 100.279 343.468 100.124 343.657 100.124H344.908C345.098 100.124 345.253 100.279 345.253 100.469C345.255 100.659 345.1 100.814 344.908 100.814ZM342.535 100.814H341.284C341.095 100.814 340.94 100.659 340.94 100.469C340.94 100.279 341.095 100.124 341.284 100.124H342.535C342.724 100.124 342.88 100.279 342.88 100.469C342.88 100.659 342.724 100.814 342.535 100.814ZM340.159 100.814H338.909C338.719 100.814 338.564 100.659 338.564 100.469C338.564 100.279 338.719 100.124 338.909 100.124H340.159C340.349 100.124 340.504 100.279 340.504 100.469C340.504 100.659 340.351 100.814 340.159 100.814ZM337.786 100.814H336.535C336.346 100.814 336.191 100.659 336.191 100.469C336.191 100.279 336.346 100.124 336.535 100.124H337.786C337.976 100.124 338.131 100.279 338.131 100.469C338.131 100.659 337.976 100.814 337.786 100.814ZM344.908 102.512H342.488C342.299 102.512 342.144 102.357 342.144 102.167C342.144 101.977 342.299 101.822 342.488 101.822H344.908C345.098 101.822 345.253 101.977 345.253 102.167C345.255 102.359 345.1 102.512 344.908 102.512ZM341.38 102.512H340.13C339.94 102.512 339.785 102.357 339.785 102.167C339.785 101.977 339.94 101.822 340.13 101.822H341.38C341.57 101.822 341.725 101.977 341.725 102.167C341.725 102.359 341.57 102.512 341.38 102.512ZM338.95 102.512H337.7C337.51 102.512 337.355 102.357 337.355 102.167C337.355 101.977 337.51 101.822 337.7 101.822H338.95C339.14 101.822 339.295 101.977 339.295 102.167C339.295 102.359 339.14 102.512 338.95 102.512ZM444.724 90.0932H457.486C458.702 90.0932 459.687 89.1074 459.687 87.8899V75.1137C459.687 73.8962 458.702 72.9104 457.486 72.9104H444.724C443.507 72.9104 442.523 73.8962 442.523 75.1137V87.8899C442.523 89.1074 443.507 90.0932 444.724 90.0932ZM444.249 96.9175H449.381C450.334 96.9175 451.107 96.1436 451.107 95.1899C451.107 94.2361 450.334 93.4622 449.381 93.4622H444.249C443.296 93.4622 442.523 94.2361 442.523 95.1899C442.523 96.1436 443.296 96.9175 444.249 96.9175ZM454.718 55.4692H457.322C457.911 55.4692 458.386 54.9911 458.386 54.4045C458.386 53.8155 457.908 53.3399 457.322 53.3399H454.718C454.13 53.3399 453.655 53.818 453.655 54.4045C453.655 54.9911 454.13 55.4692 454.718 55.4692ZM454.637 63.5254C454.637 66.5417 452.195 68.9869 449.182 68.9869C446.169 68.9869 443.726 66.5417 443.726 63.5254C443.726 60.5092 446.169 58.064 449.182 58.064C452.195 58.064 454.637 60.5092 454.637 63.5254ZM452.988 63.5254C452.988 65.612 451.298 67.3036 449.214 67.3036C447.13 67.3036 445.44 65.612 445.44 63.5254C445.44 61.4388 447.13 59.7473 449.214 59.7473C451.298 59.7473 452.988 61.4388 452.988 63.5254ZM442.466 104.213H443.717C443.906 104.213 444.061 104.057 444.061 103.868C444.061 103.678 443.906 103.522 443.717 103.522H442.466C442.277 103.522 442.122 103.678 442.122 103.868C442.122 104.06 442.274 104.213 442.466 104.213ZM444.847 104.213H446.097C446.287 104.213 446.442 104.057 446.442 103.868C446.442 103.678 446.287 103.522 446.097 103.522H444.847C444.657 103.522 444.502 103.678 444.502 103.868C444.502 104.06 444.657 104.213 444.847 104.213ZM447.23 104.213H448.48C448.67 104.213 448.825 104.057 448.825 103.868C448.825 103.678 448.67 103.522 448.48 103.522H447.23C447.04 103.522 446.885 103.678 446.885 103.868C446.883 104.06 447.038 104.213 447.23 104.213ZM442.466 100.814H443.717C443.906 100.814 444.061 100.659 444.061 100.469C444.061 100.279 443.906 100.124 443.717 100.124H442.466C442.277 100.124 442.122 100.279 442.122 100.469C442.122 100.659 442.274 100.814 442.466 100.814ZM444.839 100.814H446.09C446.279 100.814 446.435 100.659 446.435 100.469C446.435 100.279 446.279 100.124 446.09 100.124H444.839C444.65 100.124 444.495 100.279 444.495 100.469C444.495 100.659 444.65 100.814 444.839 100.814ZM447.215 100.814H448.466C448.655 100.814 448.81 100.659 448.81 100.469C448.81 100.279 448.655 100.124 448.466 100.124H447.215C447.026 100.124 446.87 100.279 446.87 100.469C446.87 100.659 447.026 100.814 447.215 100.814ZM449.591 100.814H450.841C451.031 100.814 451.186 100.659 451.186 100.469C451.186 100.279 451.031 100.124 450.841 100.124H449.591C449.401 100.124 449.246 100.279 449.246 100.469C449.246 100.659 449.399 100.814 449.591 100.814ZM442.466 102.512H444.886C445.076 102.512 445.231 102.357 445.231 102.167C445.231 101.977 445.076 101.822 444.886 101.822H442.466C442.277 101.822 442.122 101.977 442.122 102.167C442.122 102.359 442.274 102.512 442.466 102.512ZM445.996 102.512H447.247C447.437 102.512 447.592 102.357 447.592 102.167C447.592 101.977 447.437 101.822 447.247 101.822H445.996C445.807 101.822 445.652 101.977 445.652 102.167C445.649 102.359 445.804 102.512 445.996 102.512ZM448.426 102.512H449.677C449.866 102.512 450.022 102.357 450.022 102.167C450.022 101.977 449.866 101.822 449.677 101.822H448.426C448.237 101.822 448.082 101.977 448.082 102.167C448.082 102.359 448.234 102.512 448.426 102.512ZM467.516 56.1039C467.516 57.4334 466.439 58.5112 465.11 58.5112C463.781 58.5112 462.703 57.4334 462.703 56.1039C462.703 54.7743 463.781 53.6965 465.11 53.6965C466.439 53.6965 467.516 54.7743 467.516 56.1039ZM467.516 65.6518C467.516 66.9814 466.439 68.0592 465.11 68.0592C463.781 68.0592 462.703 66.9814 462.703 65.6518C462.703 64.3223 463.781 63.2445 465.11 63.2445C466.439 63.2445 467.516 64.3223 467.516 65.6518ZM472.239 60.9185C472.239 62.2481 471.162 63.3259 469.833 63.3259C468.504 63.3259 467.426 62.2481 467.426 60.9185C467.426 59.589 468.504 58.5112 469.833 58.5112C471.162 58.5112 472.239 59.589 472.239 60.9185ZM462.703 60.9185C462.703 62.2481 461.626 63.3259 460.297 63.3259C458.968 63.3259 457.891 62.2481 457.891 60.9185C457.891 59.589 458.968 58.5112 460.297 58.5112C461.626 58.5112 462.703 59.589 462.703 60.9185ZM439.946 111.348H347.243C346.921 111.348 346.662 111.087 346.662 110.767V54.0181C346.662 53.6953 346.923 53.4365 347.243 53.4365H439.944C440.266 53.4365 440.525 53.6978 440.525 54.0181V110.767C440.527 111.087 440.266 111.348 439.946 111.348ZM352.723 56.7645H434.728V108.018H352.723V56.7645ZM316.815 62.4987C316.517 61.4058 316.517 60.253 316.815 59.16C316.862 58.9875 317.018 58.8678 317.197 58.8678H319.925C320.318 58.8678 320.638 58.5485 320.638 58.1546V55.426C320.638 55.2471 320.757 55.0904 320.93 55.0434C322.022 54.7453 323.174 54.7453 324.267 55.0434C324.439 55.0904 324.559 55.2471 324.559 55.426V58.1546C324.559 58.5485 324.878 58.8678 325.272 58.8678H328C328.178 58.8678 328.335 58.9875 328.382 59.16C328.68 60.253 328.68 61.4058 328.382 62.4987C328.335 62.6712 328.178 62.7909 328 62.7909H325.272C324.878 62.7909 324.559 63.1103 324.559 63.5042V66.2328C324.559 66.4116 324.439 66.5683 324.267 66.6154C323.174 66.9134 322.022 66.9134 320.93 66.6154C320.757 66.5683 320.638 66.4116 320.638 66.2328V63.5042C320.638 63.1103 320.318 62.7909 319.925 62.7909H317.197C317.018 62.7909 316.862 62.6712 316.815 62.4987Z" stroke-width="0.334375" stroke-miterlimit="10"/>
    <path stroke="currentColor" d="M312.651 71.2605C312.554 62.6142 312.505 58.2911 314.68 55.2533C315.382 54.2727 316.235 53.4097 317.207 52.6963C320.219 50.4863 324.541 50.4863 333.184 50.4863H454.214C462.858 50.4863 467.179 50.4863 470.191 52.6963C471.164 53.4097 472.017 54.2727 472.719 55.2533C474.894 58.2911 474.845 62.6142 474.748 71.2605L474.583 85.8627C474.452 97.5105 474.386 103.334 471.386 107.408C470.417 108.724 469.247 109.88 467.921 110.835C463.816 113.791 457.994 113.791 446.35 113.791H341.049C329.405 113.791 323.583 113.791 319.478 110.835C318.151 109.88 316.982 108.724 316.013 107.408C313.012 103.334 312.947 97.5105 312.815 85.8627L312.651 71.2605Z" stroke-width="1.00312"/>
    <path stroke="currentColor" opacity="0.3" d="M474.824 64.9304L474.273 61.9191C473.25 56.3296 468.381 52.2695 462.701 52.2695H324.561C318.881 52.2695 314.012 56.3296 312.989 61.9191L312.438 64.9304M345.522 63.5574C345.522 67.7233 342.146 71.1005 337.981 71.1005C333.817 71.1005 330.441 67.7233 330.441 63.5574C330.441 59.3915 333.817 56.0143 337.981 56.0143C342.146 56.0143 345.522 59.3915 345.522 63.5574ZM456.75 63.5122C456.75 67.6782 453.374 71.0553 449.21 71.0553C445.046 71.0553 441.67 67.6782 441.67 63.5122C441.67 59.3463 445.046 55.9691 449.21 55.9691C453.374 55.9691 456.75 59.3463 456.75 63.5122Z" stroke-width="0.334375" stroke-miterlimit="10"/>
    <mask fill="currentColor">
      <path fill-rule="evenodd" clip-rule="evenodd" d="M361.455 53.6957C361.652 53.6957 361.812 53.536 361.812 53.3391C361.812 53.1421 361.652 52.9824 361.455 52.9824C361.258 52.9824 361.099 53.1421 361.099 53.3391C361.099 53.536 361.258 53.6957 361.455 53.6957ZM426.339 53.6957C426.536 53.6957 426.696 53.536 426.696 53.3391C426.696 53.1421 426.536 52.9824 426.339 52.9824C426.143 52.9824 425.983 53.1421 425.983 53.3391C425.983 53.536 426.143 53.6957 426.339 53.6957Z"/>
    </mask>
    <path fill="currentColor" fill-rule="evenodd" clip-rule="evenodd" d="M361.455 53.6957C361.652 53.6957 361.812 53.536 361.812 53.3391C361.812 53.1421 361.652 52.9824 361.455 52.9824C361.258 52.9824 361.099 53.1421 361.099 53.3391C361.099 53.536 361.258 53.6957 361.455 53.6957ZM426.339 53.6957C426.536 53.6957 426.696 53.536 426.696 53.3391C426.696 53.1421 426.536 52.9824 426.339 52.9824C426.143 52.9824 425.983 53.1421 425.983 53.3391C425.983 53.536 426.143 53.6957 426.339 53.6957Z"/>
    <path fill="currentColor" d="M361.478 53.3391C361.478 53.3515 361.467 53.3613 361.455 53.3613V54.0301C361.837 54.0301 362.146 53.7206 362.146 53.3391H361.478ZM361.455 53.3168C361.467 53.3168 361.478 53.3266 361.478 53.3391H362.146C362.146 52.9576 361.837 52.648 361.455 52.648V53.3168ZM361.433 53.3391C361.433 53.3266 361.443 53.3168 361.455 53.3168V52.648C361.074 52.648 360.765 52.9576 360.765 53.3391H361.433ZM361.455 53.3613C361.443 53.3613 361.433 53.3515 361.433 53.3391H360.765C360.765 53.7206 361.074 54.0301 361.455 54.0301V53.3613ZM426.362 53.3391C426.362 53.3515 426.352 53.3613 426.339 53.3613V54.0301C426.721 54.0301 427.03 53.7206 427.03 53.3391H426.362ZM426.339 53.3168C426.352 53.3168 426.362 53.3266 426.362 53.3391H427.03C427.03 52.9576 426.721 52.648 426.339 52.648V53.3168ZM426.317 53.3391C426.317 53.3266 426.327 53.3168 426.339 53.3168V52.648C425.958 52.648 425.649 52.9576 425.649 53.3391H426.317ZM426.339 53.3613C426.327 53.3613 426.317 53.3515 426.317 53.3391H425.649C425.649 53.7206 425.958 54.0301 426.339 54.0301V53.3613Z"/>
  </g>
  <path fill="currentColor" d="M246.077 65.8994L228.938 83.0461L246.077 100.193C250.596 95.6372 253.133 89.4724 253.133 83.0461C253.133 76.6198 250.596 70.4549 246.077 65.8994Z"/>
  <g opacity="0.5">
    <path fill="currentColor" opacity="0.5" d="M279.941 134.163L270.727 124.919C281.818 113.768 288.046 98.6593 288.046 82.9074C288.046 67.1556 281.818 52.0469 270.727 40.8958L279.941 31.6523C286.664 38.3759 291.999 46.3643 295.638 55.1597C299.278 63.955 301.151 73.3844 301.151 82.9074C301.151 92.4304 299.278 101.86 295.638 110.655C291.999 119.451 286.664 127.439 279.941 134.163Z"/>
  </g>
  <path fill="currentColor" opacity="0.5" d="M262.803 117.017L253.589 107.773C260.161 101.178 263.853 92.2338 263.853 82.9082C263.853 73.5826 260.161 64.6388 253.589 58.0433L262.803 48.7998C267.294 53.2644 270.859 58.5772 273.292 64.4315C275.725 70.2858 276.978 76.5656 276.978 82.9082C276.978 89.2509 275.725 95.5306 273.292 101.385C270.859 107.239 267.294 112.552 262.803 117.017Z"/>
  <path fill="currentColor" d="M246.077 65.8994L228.938 83.0461L246.077 100.193C250.596 95.6372 253.133 89.4724 253.133 83.0461C253.133 76.6198 250.596 70.4549 246.077 65.8994Z"/>
  <g opacity="0.5">
    <path fill="currentColor" opacity="0.5" d="M279.941 134.163L270.727 124.919C281.818 113.768 288.046 98.6593 288.046 82.9074C288.046 67.1556 281.818 52.0469 270.727 40.8958L279.941 31.6523C286.664 38.3759 291.999 46.3643 295.638 55.1597C299.278 63.955 301.151 73.3844 301.151 82.9074C301.151 92.4304 299.278 101.86 295.638 110.655C291.999 119.451 286.664 127.439 279.941 134.163Z"/>
  </g>
  <path fill="currentColor" opacity="0.5" d="M262.803 117.017L253.589 107.773C260.161 101.178 263.853 92.2338 263.853 82.9082C263.853 73.5826 260.161 64.6388 253.589 58.0433L262.803 48.7998C267.294 53.2644 270.859 58.5772 273.292 64.4315C275.725 70.2858 276.978 76.5656 276.978 82.9082C276.978 89.2509 275.725 95.5306 273.292 101.385C270.859 107.239 267.294 112.552 262.803 117.017Z"/>
  <path fill="currentColor" d="M246.077 65.8994L228.938 83.0461L246.077 100.193C250.596 95.6372 253.133 89.4724 253.133 83.0461C253.133 76.6198 250.596 70.4549 246.077 65.8994Z"/>
  <g opacity="0.5">
    <path fill="currentColor" opacity="0.5" d="M279.941 134.163L270.727 124.919C281.818 113.768 288.046 98.6593 288.046 82.9074C288.046 67.1556 281.818 52.0469 270.727 40.8958L279.941 31.6523C286.664 38.3759 291.999 46.3643 295.638 55.1597C299.278 63.955 301.151 73.3844 301.151 82.9074C301.151 92.4304 299.278 101.86 295.638 110.655C291.999 119.451 286.664 127.439 279.941 134.163Z"/>
  </g>
  <path fill="currentColor" opacity="0.5" d="M262.803 117.017L253.589 107.773C260.161 101.178 263.853 92.2338 263.853 82.9082C263.853 73.5826 260.161 64.6388 253.589 58.0433L262.803 48.7998C267.294 53.2644 270.859 58.5772 273.292 64.4315C275.725 70.2858 276.978 76.5656 276.978 82.9082C276.978 89.2509 275.725 95.5306 273.292 101.385C270.859 107.239 267.294 112.552 262.803 117.017Z"/>
  <path fill="currentColor" d="M246.077 65.8994L228.938 83.0461L246.077 100.193C250.596 95.6372 253.133 89.4724 253.133 83.0461C253.133 76.6198 250.596 70.4549 246.077 65.8994Z"/>
  <g opacity="0.5">
    <path fill="currentColor" opacity="0.5" d="M279.941 134.163L270.727 124.919C281.818 113.768 288.046 98.6593 288.046 82.9074C288.046 67.1556 281.818 52.0469 270.727 40.8958L279.941 31.6523C286.664 38.3759 291.999 46.3643 295.638 55.1597C299.278 63.955 301.151 73.3844 301.151 82.9074C301.151 92.4304 299.278 101.86 295.638 110.655C291.999 119.451 286.664 127.439 279.941 134.163Z"/>
  </g>
  <path fill="currentColor" opacity="0.5" d="M262.803 117.017L253.589 107.773C260.161 101.178 263.853 92.2338 263.853 82.9082C263.853 73.5826 260.161 64.6388 253.589 58.0433L262.803 48.7998C267.294 53.2644 270.859 58.5772 273.292 64.4315C275.725 70.2858 276.978 76.5656 276.978 82.9082C276.978 89.2509 275.725 95.5306 273.292 101.385C270.859 107.239 267.294 112.552 262.803 117.017Z"/>
  <path fill="currentColor" d="M246.077 65.8994L228.938 83.0461L246.077 100.193C250.596 95.6372 253.133 89.4724 253.133 83.0461C253.133 76.6198 250.596 70.4549 246.077 65.8994Z"/>
  <g opacity="0.5">
    <path fill="currentColor" opacity="0.5" d="M279.941 134.163L270.727 124.919C281.818 113.768 288.046 98.6593 288.046 82.9074C288.046 67.1556 281.818 52.0469 270.727 40.8958L279.941 31.6523C286.664 38.3759 291.999 46.3643 295.638 55.1597C299.278 63.955 301.151 73.3844 301.151 82.9074C301.151 92.4304 299.278 101.86 295.638 110.655C291.999 119.451 286.664 127.439 279.941 134.163Z"/>
  </g>
  <path fill="currentColor" opacity="0.5" d="M262.803 117.017L253.589 107.773C260.161 101.178 263.853 92.2338 263.853 82.9082C263.853 73.5826 260.161 64.6388 253.589 58.0433L262.803 48.7998C267.294 53.2644 270.859 58.5772 273.292 64.4315C275.725 70.2858 276.978 76.5656 276.978 82.9082C276.978 89.2509 275.725 95.5306 273.292 101.385C270.859 107.239 267.294 112.552 262.803 117.017Z"/>
  <path fill="currentColor" d="M246.077 65.8994L228.938 83.0461L246.077 100.193C250.596 95.6372 253.133 89.4724 253.133 83.0461C253.133 76.6198 250.596 70.4549 246.077 65.8994Z"/>
  <g opacity="0.5">
    <path fill="currentColor" opacity="0.5" d="M279.941 134.163L270.727 124.919C281.818 113.768 288.046 98.6593 288.046 82.9074C288.046 67.1556 281.818 52.0469 270.727 40.8958L279.941 31.6523C286.664 38.3759 291.999 46.3643 295.638 55.1597C299.278 63.955 301.151 73.3844 301.151 82.9074C301.151 92.4304 299.278 101.86 295.638 110.655C291.999 119.451 286.664 127.439 279.941 134.163Z"/>
  </g>
  <path fill="currentColor" opacity="0.5" d="M262.803 117.017L253.589 107.773C260.161 101.178 263.853 92.2338 263.853 82.9082C263.853 73.5826 260.161 64.6388 253.589 58.0433L262.803 48.7998C267.294 53.2644 270.859 58.5772 273.292 64.4315C275.725 70.2858 276.978 76.5656 276.978 82.9082C276.978 89.2509 275.725 95.5306 273.292 101.385C270.859 107.239 267.294 112.552 262.803 117.017Z"/>
  <path fill="currentColor" d="M246.077 65.8994L228.938 83.0461L246.077 100.193C250.596 95.6372 253.133 89.4724 253.133 83.0461C253.133 76.6198 250.596 70.4549 246.077 65.8994Z"/>
  <g opacity="0.5">
    <path fill="currentColor" opacity="0.5" d="M279.941 134.163L270.727 124.919C281.818 113.768 288.046 98.6593 288.046 82.9074C288.046 67.1556 281.818 52.0469 270.727 40.8958L279.941 31.6523C286.664 38.3759 291.999 46.3643 295.638 55.1597C299.278 63.955 301.151 73.3844 301.151 82.9074C301.151 92.4304 299.278 101.86 295.638 110.655C291.999 119.451 286.664 127.439 279.941 134.163Z"/>
  </g>
  <path fill="currentColor" opacity="0.5" d="M262.803 117.017L253.589 107.773C260.161 101.178 263.853 92.2338 263.853 82.9082C263.853 73.5826 260.161 64.6388 253.589 58.0433L262.803 48.7998C267.294 53.2644 270.859 58.5772 273.292 64.4315C275.725 70.2858 276.978 76.5656 276.978 82.9082C276.978 89.2509 275.725 95.5306 273.292 101.385C270.859 107.239 267.294 112.552 262.803 117.017Z"/>
  <path fill="currentColor" d="M246.077 65.8994L228.938 83.0461L246.077 100.193C250.596 95.6372 253.133 89.4724 253.133 83.0461C253.133 76.6198 250.596 70.4549 246.077 65.8994Z"/>
  <g opacity="0.5">
    <path fill="currentColor" opacity="0.5" d="M279.941 134.163L270.727 124.919C281.818 113.768 288.046 98.6593 288.046 82.9074C288.046 67.1556 281.818 52.0469 270.727 40.8958L279.941 31.6523C286.664 38.3759 291.999 46.3643 295.638 55.1597C299.278 63.955 301.151 73.3844 301.151 82.9074C301.151 92.4304 299.278 101.86 295.638 110.655C291.999 119.451 286.664 127.439 279.941 134.163Z"/>
  </g>
  <path fill="currentColor" opacity="0.5" d="M262.803 117.017L253.589 107.773C260.161 101.178 263.853 92.2338 263.853 82.9082C263.853 73.5826 260.161 64.6388 253.589 58.0433L262.803 48.7998C267.294 53.2644 270.859 58.5772 273.292 64.4315C275.725 70.2858 276.978 76.5656 276.978 82.9082C276.978 89.2509 275.725 95.5306 273.292 101.385C270.859 107.239 267.294 112.552 262.803 117.017Z"/>
</svg>
