<?xml version="1.0"?>
<svg xmlns="http://www.w3.org/2000/svg" viewBox="0 0 32 32" fill="none">
  <path d="M5.01009 11.5555L8.88888 6.22217H11.5555V25.7777H8.88888L5.01009 20.4444H1.77777V11.5555H5.01009Z" fill="currentColor"/>
  <path d="M21.9803 27.3137C28.2287 21.0653 28.2287 10.9347 21.9803 4.68628L24.4945 2.17212C32.1314 9.80904 32.1314 22.1909 24.4945 29.8279L21.9803 27.3137Z" fill="currentColor"/>
  <path d="M18.2092 8.45752C22.3748 12.6231 22.3748 19.3769 18.2092 23.5425L20.7233 26.0566C26.2774 20.5025 26.2774 11.4975 20.7233 5.94336L18.2092 8.45752Z" fill="currentColor"/>
  <path d="M14.4379 12.2288C16.5207 14.3116 16.5207 17.6884 14.4379 19.7712L16.952 22.2854C20.4234 18.8141 20.4234 13.1859 16.952 9.7146L14.4379 12.2288Z" fill="currentColor"/>
</svg>
