<?xml version="1.0"?>
<svg xmlns="http://www.w3.org/2000/svg" version="1.1" viewBox="0 0 1024 1024">
  <path d="M785.4,244.2c-48.2-31.4-82.9-81.6-93.8-140.2-2.3-12.6-3.6-25.7-3.6-39h-153.7l-.2,616c-2.6,69-59.4,124.3-128.9,124.3s-42-5.4-59.9-14.8c-41.1-21.6-69.3-64.7-69.3-114.3,0-71.2,58-129.2,129.2-129.2s26.1,2.2,38.1,6v-156.9c-12.5-1.7-25.2-2.8-38.1-2.8-156,0-282.9,126.9-282.9,282.9s47.8,180.4,120.8,231.6c45.9,32.3,101.9,51.3,162.1,51.3,156,0,282.9-126.9,282.9-282.9v-312.4c60.3,43.3,134.1,68.8,213.8,68.8v-153.7c-42.9,0-82.9-12.8-116.5-34.6Z"/>
</svg>
