<?xml version="1.0"?>
<svg viewBox="0 0 24 24" fill="none" xmlns="http://www.w3.org/2000/svg">
  <path d="M17 3C17.5523 3 18 3.44772 18 4V15C18 15.5523 17.5523 16 17 16H7C6.44772 16 6 15.5523 6 15V4C6 3.44772 6.44772 3 7 3H17ZM8 12V13H16V12H8ZM8 9V10H16V9H8ZM8 6V7H16V6H8Z" fill="currentColor"/>
  <path d="M14.0507 18C14.2648 18 14.3793 18.2522 14.2391 18.4141L12.1884 20.7822C12.0886 20.8969 11.91 20.8971 11.8104 20.7822L9.75964 18.4141C9.61942 18.2522 9.73491 18 9.94909 18H10.9999V17.25C10.9999 17.1119 11.1118 17 11.2499 17H12.7499C12.8879 17.0001 12.9999 17.112 12.9999 17.25V18H14.0507Z" fill="currentColor"/>
</svg>
