<?xml version="1.0"?>
<svg width="48" height="24" viewBox="0 0 48 24" fill="none" xmlns="http://www.w3.org/2000/svg">
  <rect width="48" height="24" rx="3" fill="#1A9FFF"/>
  <path d="M14.3799 11.712C14.9399 11.896 15.3359 12.16 15.5679 12.504C15.8079 12.848 15.9279 13.264 15.9279 13.752C15.9279 14.248 15.7999 14.68 15.5439 15.048C15.2959 15.416 14.9359 15.7 14.4639 15.9C13.9999 16.1 13.4559 16.2 12.8319 16.2H9.17188V7.79999H12.4959C13.5119 7.79999 14.2559 7.98799 14.7279 8.36399C15.2079 8.73199 15.4479 9.25599 15.4479 9.93599C15.4479 10.744 15.0919 11.336 14.3799 11.712ZM11.2839 9.51599V11.22H12.3879C12.7159 11.22 12.9639 11.144 13.1319 10.992C13.3079 10.84 13.3959 10.62 13.3959 10.332C13.3959 9.78799 13.0479 9.51599 12.3519 9.51599H11.2839ZM12.6159 14.496C12.9759 14.496 13.2439 14.412 13.4199 14.244C13.6039 14.068 13.6959 13.84 13.6959 13.56C13.6959 12.984 13.3519 12.696 12.6639 12.696H11.2839V14.496H12.6159Z" fill="white"/>
  <path d="M17.1992 7.79999H23.0192V9.57599H19.2752V11.088H22.4552V12.852H19.2752V14.424H23.0192V16.2H17.1992V7.79999Z" fill="white"/>
  <path d="M28.5072 16.2H26.4312V9.57599H23.9832V7.79999H30.9552V9.57599H28.5072V16.2Z" fill="white"/>
  <path d="M38.8285 16.2H36.5845L36.0925 14.76H33.0325L32.5525 16.2H30.3805L33.5365 7.79999H35.5525L38.8285 16.2ZM34.5325 10.236L33.5725 13.128H35.5285L34.5325 10.236Z" fill="white"/>
</svg>
